<?xml version="1.0" standalone="no"?>
<svg xmlns:xlink="http://www.w3.org/1999/xlink" id="wave" style="transform:rotate(180deg); transition: 0.3s" viewBox="0 0 1440 130" version="1.1" xmlns="http://www.w3.org/2000/svg"><defs><linearGradient id="sw-gradient-0" x1="0" x2="0" y1="1" y2="0"><stop stop-color="rgba(0, 0, 0, 1)" offset="0%"/><stop stop-color="rgba(0, 0, 0, 1)" offset="100%"/></linearGradient></defs><path style="transform:translate(0, 0px); opacity:1" fill="url(#sw-gradient-0)" d="M0,104L30,86.7C60,69,120,35,180,30.3C240,26,300,52,360,56.3C420,61,480,43,540,36.8C600,30,660,35,720,36.8C780,39,840,39,900,49.8C960,61,1020,82,1080,95.3C1140,108,1200,113,1260,95.3C1320,78,1380,39,1440,36.8C1500,35,1560,69,1620,82.3C1680,95,1740,87,1800,86.7C1860,87,1920,95,1980,86.7C2040,78,2100,52,2160,43.3C2220,35,2280,43,2340,52C2400,61,2460,69,2520,67.2C2580,65,2640,52,2700,45.5C2760,39,2820,39,2880,52C2940,65,3000,91,3060,93.2C3120,95,3180,74,3240,58.5C3300,43,3360,35,3420,36.8C3480,39,3540,52,3600,58.5C3660,65,3720,65,3780,67.2C3840,69,3900,74,3960,71.5C4020,69,4080,61,4140,65C4200,69,4260,87,4290,95.3L4320,104L4320,130L4290,130C4260,130,4200,130,4140,130C4080,130,4020,130,3960,130C3900,130,3840,130,3780,130C3720,130,3660,130,3600,130C3540,130,3480,130,3420,130C3360,130,3300,130,3240,130C3180,130,3120,130,3060,130C3000,130,2940,130,2880,130C2820,130,2760,130,2700,130C2640,130,2580,130,2520,130C2460,130,2400,130,2340,130C2280,130,2220,130,2160,130C2100,130,2040,130,1980,130C1920,130,1860,130,1800,130C1740,130,1680,130,1620,130C1560,130,1500,130,1440,130C1380,130,1320,130,1260,130C1200,130,1140,130,1080,130C1020,130,960,130,900,130C840,130,780,130,720,130C660,130,600,130,540,130C480,130,420,130,360,130C300,130,240,130,180,130C120,130,60,130,30,130L0,130Z"/></svg>